<svg xmlns="http://www.w3.org/2000/svg" viewBox="0 0 128 128" role="img" aria-label="Madre Linda Labs logo">
  <title>Madre Linda Labs logo</title>
  <defs>
    <linearGradient id="markStroke" x1="0.1" y1="0.1" x2="0.9" y2="0.9">
      <stop offset="0%" stop-color="#8FE3DF" />
      <stop offset="100%" stop-color="#63C8C2" />
    </linearGradient>
    <linearGradient id="markCore" x1="0.2" y1="0.1" x2="0.8" y2="0.9">
      <stop offset="0%" stop-color="#72A8FF" />
      <stop offset="100%" stop-color="#4A7FDB" />
    </linearGradient>
  </defs>
  <g fill="none" stroke-linecap="round" stroke-linejoin="round">
    <path d="M64 14L104 37V83L64 106L24 83V37Z" stroke="url(#markStroke)" stroke-width="4.8" />
    <path d="M38 66L54 81L88 48" stroke="#E8FFFE" stroke-width="6.2" />
    <circle cx="64" cy="60" r="9.5" fill="url(#markCore)" stroke="#9DC0FF" stroke-opacity="0.58" stroke-width="1.2" />
    <path d="M64 53V67M57 60H71" stroke="#E8FFFE" stroke-opacity="0.92" stroke-width="2" />
    <path d="M24 83L64 60L104 83" stroke="#7FA6DA" stroke-opacity="0.35" stroke-width="2.4" />
    <path d="M24 37L64 60L104 37" stroke="#7FA6DA" stroke-opacity="0.25" stroke-width="2.4" />
  </g>
  <g fill="#63C8C2">
    <circle cx="64" cy="14" r="2.6" />
    <circle cx="104" cy="37" r="2.6" />
    <circle cx="104" cy="83" r="2.6" />
    <circle cx="64" cy="106" r="2.6" />
    <circle cx="24" cy="83" r="2.6" />
    <circle cx="24" cy="37" r="2.6" />
  </g>
</svg>
